<svg id="drillhole" enable-background="new 0 0 300 300" height="512" viewBox="0 0 300 300" width="512" xmlns="http://www.w3.org/2000/svg"><g><circle cx="156" cy="120" fill="#eaeaea" r="86"/><g><path d="m242 270v-108h-184v108" fill="#bf7e68"/><path d="m242 274c-2.211 0-4-1.791-4-4v-104h-176v104c0 2.209-1.789 4-4 4s-4-1.791-4-4v-108c0-2.209 1.789-4 4-4h184c2.211 0 4 1.791 4 4v108c0 2.209-1.789 4-4 4z" fill="#4c241d"/></g><path d="m70 166h-32c-2.211 0-4-1.791-4-4s1.789-4 4-4h32c2.211 0 4 1.791 4 4s-1.789 4-4 4z" fill="#4c241d"/><path d="m262 166h-44c-2.211 0-4-1.791-4-4s1.789-4 4-4h44c2.211 0 4 1.791 4 4s-1.789 4-4 4z" fill="#4c241d"/><path d="m178 114h-56c-1.23 0-2.395-.568-3.152-1.539s-1.027-2.236-.727-3.432l20-80c.445-1.779 2.043-3.029 3.879-3.029h16c1.836 0 3.434 1.25 3.879 3.029l20 80c.301 1.195.031 2.461-.727 3.432s-1.922 1.539-3.152 1.539zm-50.875-8h45.75l-18-72h-9.75z" fill="#4c241d"/><path d="m126.004 110c-1.523 0-2.977-.871-3.645-2.346-.914-2.01-.027-4.381 1.984-5.295l35.898-16.318-27.867-12.387c-1.312-.582-2.211-1.822-2.355-3.25-.145-1.43.488-2.824 1.656-3.66l23.035-16.453-14.77-8.861c-1.895-1.137-2.508-3.594-1.371-5.488 1.137-1.893 3.59-2.508 5.488-1.371l20 12c1.156.693 1.883 1.922 1.938 3.27s-.574 2.631-1.672 3.416l-22.303 15.931 29.605 13.158c1.438.639 2.367 2.062 2.375 3.637.008 1.576-.91 3.008-2.344 3.658l-44 20c-.539.244-1.101.359-1.652.359z" fill="#4c241d"/><path d="m212 90c-7.719 0-14-6.281-14-14s6.281-14 14-14 14 6.281 14 14-6.281 14-14 14zm0-20c-3.309 0-6 2.691-6 6s2.691 6 6 6 6-2.691 6-6-2.691-6-6-6z" fill="#4c241d"/><path d="m71.656 115.656c-1.023 0-2.047-.391-2.828-1.172l-11.312-11.312c-1.562-1.562-1.562-4.094 0-5.656s4.094-1.562 5.656 0l11.312 11.312c1.562 1.562 1.562 4.094 0 5.656-.781.782-1.804 1.172-2.828 1.172z" fill="#4c241d"/><path d="m60.344 115.656c-1.023 0-2.047-.391-2.828-1.172-1.562-1.562-1.562-4.094 0-5.656l11.312-11.312c1.562-1.562 4.094-1.562 5.656 0s1.562 4.094 0 5.656l-11.312 11.312c-.781.782-1.805 1.172-2.828 1.172z" fill="#4c241d"/><g><path d="m162 234-12 20-12-20v-108h24z" fill="#b5a19c"/><path d="m150 258c-1.406 0-2.707-.736-3.43-1.941l-12-20c-.375-.623-.57-1.334-.57-2.059v-108c0-2.209 1.789-4 4-4h24c2.211 0 4 1.791 4 4v108c0 .725-.195 1.436-.57 2.059l-12 20c-.723 1.205-2.024 1.941-3.43 1.941zm-8-25.107 8 13.332 8-13.332v-102.893h-16zm20 1.107h.039z" fill="#4c241d"/></g><path d="m146 131.578h8v28.844h-8z" fill="#4c241d" transform="matrix(.555 -.832 .832 .555 -54.684 189.821)"/><path d="m146 151.578h8v28.844h-8z" fill="#4c241d" transform="matrix(.555 -.832 .832 .555 -71.325 198.727)"/><path d="m146 171.578h8v28.844h-8z" fill="#4c241d" transform="matrix(.555 -.832 .832 .555 -87.966 207.633)"/><path d="m146 191.578h8v28.844h-8z" fill="#4c241d" transform="matrix(.555 -.832 .832 .555 -104.607 216.539)"/><path d="m146 211.578h8v28.844h-8z" fill="#4c241d" transform="matrix(.555 -.832 .832 .555 -121.248 225.445)"/><g><path d="m194 162h-16v-36h-56v36h-16v-44c0-4.418 3.582-8 8-8h72c4.418 0 8 3.582 8 8z" fill="#ffce56"/><path d="m194 166h-16c-2.211 0-4-1.791-4-4v-32h-48v32c0 2.209-1.789 4-4 4h-16c-2.211 0-4-1.791-4-4v-44c0-6.617 5.383-12 12-12h72c6.617 0 12 5.383 12 12v44c0 2.209-1.789 4-4 4zm-12-8h8v-40c0-2.205-1.793-4-4-4h-72c-2.207 0-4 1.795-4 4v40h8v-32c0-2.209 1.789-4 4-4h56c2.211 0 4 1.791 4 4z" fill="#4c241d"/></g><g fill="#4c241d"><circle cx="106" cy="206" r="4"/><circle cx="118" cy="186" r="4"/><circle cx="94" cy="194" r="4"/><circle cx="74" cy="194" r="4"/><circle cx="94" cy="230" r="4"/><circle cx="110" cy="246" r="4"/><circle cx="206" cy="202" r="4"/><circle cx="190" cy="186" r="4"/><circle cx="218" cy="190" r="4"/><circle cx="82" cy="250" r="4"/><circle cx="218" cy="226" r="4"/><circle cx="202" cy="242" r="4"/><circle cx="190" cy="222" r="4"/><path d="m242 122c-2.211 0-4-1.791-4-4v-16c0-2.209 1.789-4 4-4s4 1.791 4 4v16c0 2.209-1.789 4-4 4z"/><path d="m250 114h-16c-2.211 0-4-1.791-4-4s1.789-4 4-4h16c2.211 0 4 1.791 4 4s-1.789 4-4 4z"/></g></g></svg>